<svg width="40" height="72" viewBox="0 0 30 60" fill="none" xmlns="http://www.w3.org/2000/svg">
<path d="M18.7926 0.459969L8.04939 2.94125C5.68695 3.48671 3.67728 4.81291 2.25554 6.59901C0.833801 8.3958 0 10.6525 0 13.0803V53.1659C0 57.5616 4.08349 60.8129 8.37008 59.8183C9.89872 59.4653 11.267 58.5883 12.2291 57.3477L35.7466 26.9733C45.3674 14.5562 34.0897 -3.06944 18.7926 0.459969ZM21.4757 23.6364C17.7664 23.6364 14.7626 20.6311 14.7626 16.9199C14.7626 13.2086 17.7664 10.2033 21.4757 10.2033C25.1851 10.2033 28.1889 13.2086 28.1889 16.9199C28.1889 20.6311 25.1851 23.6364 21.4757 23.6364Z" fill="#E6267B"/>
</svg>
