<svg width="91" height="60" viewBox="0 0 91 60" fill="none" xmlns="http://www.w3.org/2000/svg">
<path d="M11.6498 5.95722C6.28354 5.95722 2.32833 10.3209 2.32833 15.6471V31.9251H8.25046V24.1925C9.65082 24.9305 11.0939 25.3797 12.3553 25.3797C17.7216 25.3797 21.7516 21.016 21.7516 15.6471C21.7516 10.2781 16.984 5.95722 11.6605 5.95722H11.6498ZM12.0133 19.4652C9.93944 19.4652 8.23977 17.7647 8.23977 15.6578C8.23977 13.5508 9.93944 11.8824 12.0133 11.8824C14.0871 11.8824 15.8188 13.5829 15.8188 15.6578C15.8188 17.7326 14.1191 19.4652 12.0133 19.4652ZM32.3238 5.95722C27.0751 5.95722 22.7778 10.3209 22.7778 15.6471C22.7778 20.9733 27.0644 25.3797 32.3238 25.3797C33.6493 25.3797 35.2421 24.8235 36.728 23.861V25.0053H41.827V15.6471C41.827 10.3209 37.5725 5.95722 32.3238 5.95722ZM32.249 19.4652C30.1752 19.4652 28.4755 17.7647 28.4755 15.6578C28.4755 13.5508 30.1752 11.8824 32.249 11.8824C34.3228 11.8824 36.0545 13.5829 36.0545 15.6578C36.0545 17.7326 34.3549 19.4652 32.249 19.4652ZM56.2475 11.1551H49.9512C49.8016 11.1551 49.684 11.2727 49.684 11.4225V25.0053H43.6443V12.6203C43.6443 9.14438 46.4664 6.32085 49.9405 6.32085H56.2368V11.1551H56.2475ZM65.3445 11.2834V19.2727C65.3445 19.4225 65.4514 19.5294 65.601 19.5294H69.3745V25.0053H65.601C62.1269 25.0053 59.3154 22.1925 59.3154 18.7166V11.2834C59.3154 11.1337 59.2085 11.0267 59.0589 11.0267H57.4661V6.33155H59.0161C59.1658 6.33155 59.3154 6.2246 59.3154 6.07487V0H65.3445V6.06417C65.3445 6.2139 65.4941 6.32085 65.6438 6.32085H69.3745V11.016H65.601C65.4514 11.016 65.3445 11.123 65.3445 11.2727V11.2834ZM90.9999 6.32085L82.5229 29.7754C81.625 32.2674 79.2519 33.9358 76.6008 33.9358H72.2394V27.893H76.7825C77.7339 27.893 78.3967 26.9412 78.0653 26.0535L70.7749 6.32085H77.0284L81.3364 18.4385L84.9281 6.32085H91.0106H90.9999ZM28.1655 33.861C22.7992 33.861 18.844 38.2246 18.844 43.5508V59.8289H24.7661V52.0963C26.1665 52.8342 27.6096 53.2834 28.871 53.2834C34.2373 53.2834 38.2673 48.9198 38.2673 43.5508C38.2673 38.1818 33.4997 33.861 28.1762 33.861H28.1655ZM28.5289 47.369C26.4551 47.369 24.7555 45.6684 24.7555 43.5615C24.7555 41.4545 26.4551 39.7861 28.5289 39.7861C30.6027 39.7861 32.3345 41.4866 32.3345 43.5615C32.3345 45.6364 30.6348 47.369 28.5289 47.369ZM66.7341 39.1872V47.1765C66.7341 47.3262 66.841 47.4331 66.9907 47.4331H70.7642V52.9091H66.9907C63.5165 52.9091 60.7051 50.0962 60.7051 46.6203V39.1872C60.7051 39.0374 60.5982 38.9305 60.4486 38.9305H58.8558V34.2353H60.4058C60.5555 34.2353 60.7051 34.1283 60.7051 33.9786V27.9144H66.7341V33.9786C66.7341 34.1283 66.8838 34.2353 67.0335 34.2353H70.7642V38.9305H66.9907C66.841 38.9305 66.7341 39.0374 66.7341 39.1872ZM48.7753 33.6043C43.4839 33.6043 39.1973 38.0428 39.1973 43.5615C39.1973 49.0802 43.4839 53.5508 48.7753 53.5508C54.0668 53.5508 58.3534 49.0695 58.3534 43.5615C58.3534 38.0535 54.0668 33.6043 48.7753 33.6043ZM48.7753 47.4438C46.6695 47.4438 44.9698 45.7005 44.9698 43.5615C44.9698 41.4225 46.6695 39.6791 48.7753 39.6791C50.8812 39.6791 52.5809 41.4225 52.5809 43.5615C52.5809 45.7005 50.8812 47.4438 48.7753 47.4438ZM4.81904 52.4171C3.42937 51.8396 2.32833 51.0588 1.5266 50.0535C0.714174 49.0481 0.265206 47.9251 0.179688 46.6631H6.45458C6.55078 47.2727 6.83941 47.7433 7.33114 48.0749C7.82287 48.4171 8.81701 48.5775 9.54392 48.5775C10.0998 48.5775 10.5488 48.4599 10.8801 48.2353C11.2008 48.0107 11.3719 47.7219 11.3719 47.3583C11.3719 46.8877 11.1046 46.5348 10.5594 46.3102C10.025 46.0856 9.1377 45.8396 7.89769 45.5722C6.49733 45.3048 5.32146 44.9946 4.39145 44.6631C3.46144 44.3209 2.64902 43.7754 1.95419 43.0053C1.27004 42.246 0.91728 41.2086 0.91728 39.9037C0.91728 38.7807 1.22728 37.7647 1.86867 36.8556C2.49936 35.9465 3.42937 35.2192 4.6587 34.6845C5.88802 34.139 7.36321 33.8717 9.09495 33.8717C11.6712 33.8717 13.6915 34.4813 15.1667 35.6898C16.6419 36.9091 17.4971 38.5027 17.7216 40.4813H11.5108C11.3932 39.8717 11.1153 39.4118 10.6877 39.0802C10.2494 38.7594 9.67219 38.5882 8.95598 38.5882C8.38942 38.5882 7.97252 38.6845 7.67321 38.8877C7.38458 39.0909 7.23493 39.369 7.23493 39.7326C7.23493 40.1818 7.50217 40.5241 8.03666 40.7594C8.57115 40.9946 9.43702 41.2406 10.6343 41.4866C12.056 41.7754 13.2426 42.1069 14.194 42.4706C15.1454 42.8342 15.9685 43.4118 16.6847 44.2032C17.4009 45.0053 17.7537 46.0856 17.7537 47.4545C17.7537 48.5561 17.4223 49.5508 16.7595 50.4278C16.0967 51.3048 15.1454 52 13.916 52.5027C12.6867 53.0053 11.2436 53.262 9.58668 53.262C7.81218 53.262 6.2194 52.9733 4.82973 52.4064L4.81904 52.4171Z" fill="#E6267B"/>
</svg>
