<svg width="91" height="60" viewBox="0 0 91 60" fill="none" xmlns="http://www.w3.org/2000/svg">
<path d="M11.6499 5.95722C6.28366 5.95722 2.32845 10.3209 2.32845 15.6471V31.9251H8.25058V24.1925C9.65094 24.9305 11.0941 25.3797 12.3554 25.3797C17.7217 25.3797 21.7517 21.016 21.7517 15.6471C21.7517 10.2781 16.9841 5.95722 11.6606 5.95722H11.6499ZM12.0134 19.4652C9.93956 19.4652 8.23989 17.7647 8.23989 15.6578C8.23989 13.5508 9.93956 11.8824 12.0134 11.8824C14.0872 11.8824 15.8189 13.5829 15.8189 15.6578C15.8189 17.7326 14.1193 19.4652 12.0134 19.4652ZM32.3239 5.95722C27.0752 5.95722 22.778 10.3209 22.778 15.6471C22.778 20.9733 27.0646 25.3797 32.3239 25.3797C33.6494 25.3797 35.2422 24.8235 36.7281 23.861V25.0053H41.8271V15.6471C41.8271 10.3209 37.5726 5.95722 32.3239 5.95722ZM32.2491 19.4652C30.1753 19.4652 28.4756 17.7647 28.4756 15.6578C28.4756 13.5508 30.1753 11.8824 32.2491 11.8824C34.3229 11.8824 36.0546 13.5829 36.0546 15.6578C36.0546 17.7326 34.355 19.4652 32.2491 19.4652ZM56.2476 11.1551H49.9513C49.8017 11.1551 49.6841 11.2727 49.6841 11.4225V25.0053H43.6444V12.6203C43.6444 9.14438 46.4665 6.32085 49.9407 6.32085H56.2369V11.1551H56.2476ZM65.3446 11.2834V19.2727C65.3446 19.4225 65.4515 19.5294 65.6012 19.5294H69.3746V25.0053H65.6012C62.127 25.0053 59.3156 22.1925 59.3156 18.7166V11.2834C59.3156 11.1337 59.2087 11.0267 59.059 11.0267H57.4662V6.33155H59.0163C59.1659 6.33155 59.3156 6.2246 59.3156 6.07487V0H65.3446V6.06417C65.3446 6.2139 65.4943 6.32085 65.6439 6.32085H69.3746V11.016H65.6012C65.4515 11.016 65.3446 11.123 65.3446 11.2727V11.2834ZM91 6.32085L82.523 29.7754C81.6251 32.2674 79.252 33.9358 76.6009 33.9358H72.2395V27.893H76.7826C77.734 27.893 78.3968 26.9412 78.0654 26.0535L70.775 6.32085H77.0285L81.3365 18.4385L84.9282 6.32085H91.0107H91ZM28.1656 33.861C22.7993 33.861 18.8441 38.2246 18.8441 43.5508V59.8289H24.7663V52.0963C26.1666 52.8342 27.6097 53.2834 28.8711 53.2834C34.2374 53.2834 38.2674 48.9198 38.2674 43.5508C38.2674 38.1818 33.4998 33.861 28.1763 33.861H28.1656ZM28.5291 47.369C26.4552 47.369 24.7556 45.6684 24.7556 43.5615C24.7556 41.4545 26.4552 39.7861 28.5291 39.7861C30.6029 39.7861 32.3346 41.4866 32.3346 43.5615C32.3346 45.6364 30.6349 47.369 28.5291 47.369ZM66.7343 39.1872V47.1765C66.7343 47.3262 66.8412 47.4331 66.9908 47.4331H70.7643V52.9091H66.9908C63.5166 52.9091 60.7052 50.0962 60.7052 46.6203V39.1872C60.7052 39.0374 60.5983 38.9305 60.4487 38.9305H58.8559V34.2353H60.4059C60.5556 34.2353 60.7052 34.1283 60.7052 33.9786V27.9144H66.7343V33.9786C66.7343 34.1283 66.8839 34.2353 67.0336 34.2353H70.7643V38.9305H66.9908C66.8412 38.9305 66.7343 39.0374 66.7343 39.1872ZM48.7755 33.6043C43.484 33.6043 39.1974 38.0428 39.1974 43.5615C39.1974 49.0802 43.484 53.5508 48.7755 53.5508C54.0669 53.5508 58.3535 49.0695 58.3535 43.5615C58.3535 38.0535 54.0669 33.6043 48.7755 33.6043ZM48.7755 47.4438C46.6696 47.4438 44.9699 45.7005 44.9699 43.5615C44.9699 41.4225 46.6696 39.6791 48.7755 39.6791C50.8814 39.6791 52.581 41.4225 52.581 43.5615C52.581 45.7005 50.8814 47.4438 48.7755 47.4438ZM4.81917 52.4171C3.4295 51.8396 2.32845 51.0588 1.52672 50.0535C0.714296 49.0481 0.265328 47.9251 0.17981 46.6631H6.4547C6.55091 47.2727 6.83953 47.7433 7.33126 48.0749C7.82299 48.4171 8.81713 48.5775 9.54404 48.5775C10.0999 48.5775 10.5489 48.4599 10.8803 48.2353C11.201 48.0107 11.372 47.7219 11.372 47.3583C11.372 46.8877 11.1047 46.5348 10.5596 46.3102C10.0251 46.0856 9.13783 45.8396 7.89781 45.5722C6.49746 45.3048 5.32158 44.9946 4.39157 44.6631C3.46156 44.3209 2.64914 43.7754 1.95431 43.0053C1.27017 42.246 0.917402 41.2086 0.917402 39.9037C0.917402 38.7807 1.2274 37.7647 1.86879 36.8556C2.49949 35.9465 3.4295 35.2192 4.65882 34.6845C5.88814 34.139 7.36333 33.8717 9.09507 33.8717C11.6713 33.8717 13.6917 34.4813 15.1669 35.6898C16.642 36.9091 17.4972 38.5027 17.7217 40.4813H11.511C11.3934 39.8717 11.1154 39.4118 10.6878 39.0802C10.2496 38.7594 9.67232 38.5882 8.9561 38.5882C8.38955 38.5882 7.97264 38.6845 7.67333 38.8877C7.38471 39.0909 7.23505 39.369 7.23505 39.7326C7.23505 40.1818 7.5023 40.5241 8.03678 40.7594C8.57127 40.9946 9.43714 41.2406 10.6344 41.4866C12.0561 41.7754 13.2427 42.1069 14.1941 42.4706C15.1455 42.8342 15.9686 43.4118 16.6848 44.2032C17.401 45.0053 17.7538 46.0856 17.7538 47.4545C17.7538 48.5561 17.4224 49.5508 16.7596 50.4278C16.0969 51.3048 15.1455 52 13.9162 52.5027C12.6868 53.0053 11.2437 53.262 9.5868 53.262C7.8123 53.262 6.21952 52.9733 4.82985 52.4064L4.81917 52.4171Z" fill="#E6267B"/>
</svg>
