<svg width="232" height="352" viewBox="0 0 232 352" fill="none" xmlns="http://www.w3.org/2000/svg">
<path d="M110.468 2.68856L47.336 17.2462C33.4534 20.4464 21.6437 28.2272 13.289 38.7063C4.9343 49.248 0.0345459 62.488 0.0345459 76.7319V311.914C0.0345459 337.703 24.0308 356.779 49.2206 350.943C58.2034 348.873 66.2441 343.727 71.8976 336.448L210.096 158.242C266.632 85.3912 200.359 -18.0185 110.468 2.68856ZM126.235 138.665C104.437 138.665 86.7854 121.032 86.7854 99.2587C86.7854 77.4849 104.437 59.8525 126.235 59.8525C148.032 59.8525 165.684 77.4849 165.684 99.2587C165.684 121.032 148.032 138.665 126.235 138.665Z" fill="#E6267B"/>
</svg>
