<svg width="351" height="93" viewBox="0 0 351 93" fill="none" xmlns="http://www.w3.org/2000/svg">
<g filter="url(#filter0_d_335_93)">
<path d="M29.0305 26.7472C18.5668 26.7472 10.8545 35.2338 10.8545 45.5925V77.2508H22.4021V62.2121C25.1326 63.6473 27.9466 64.5209 30.4062 64.5209C40.8699 64.5209 48.7281 56.0343 48.7281 45.5925C48.7281 35.1506 39.4108 26.7472 29.0305 26.7472ZM29.7392 53.0182C25.6954 53.0182 22.3812 49.711 22.3812 45.6133C22.3812 41.5156 25.6954 38.2707 29.7392 38.2707C33.7829 38.2707 37.1596 41.578 37.1596 45.6133C37.1596 49.6486 33.8455 53.0182 29.7392 53.0182ZM69.3428 26.7472C59.1084 26.7472 50.7291 35.2338 50.7291 45.5925C50.7291 55.9511 59.0876 64.5209 69.3428 64.5209C71.9275 64.5209 75.0332 63.4393 77.9306 61.5672V63.7929H87.8732V45.5925C87.8732 35.2338 79.5772 26.7472 69.3428 26.7472ZM69.1969 53.0182C65.1532 53.0182 61.839 49.711 61.839 45.6133C61.839 41.5156 65.1532 38.2707 69.1969 38.2707C73.2407 38.2707 76.6174 41.578 76.6174 45.6133C76.6174 49.6486 73.3032 53.0182 69.1969 53.0182ZM115.992 36.8562H103.715C103.423 36.8562 103.194 37.085 103.194 37.3763V63.7929H91.4166V39.7059C91.4166 32.9457 96.9195 27.4544 103.694 27.4544H115.971V36.8562H115.992ZM133.73 37.1058V52.6438C133.73 52.935 133.938 53.143 134.23 53.143H141.588V63.7929H134.23C127.456 63.7929 121.974 58.3224 121.974 51.5622V37.1058C121.974 36.8146 121.766 36.6066 121.474 36.6066H118.368V27.4752H121.39C121.682 27.4752 121.974 27.2672 121.974 26.976V15.1613H133.73V26.9552C133.73 27.2464 134.022 27.4544 134.314 27.4544H141.588V36.5858H134.23C133.938 36.5858 133.73 36.7938 133.73 37.085V37.1058ZM183.756 27.4544L167.226 73.0699C165.475 77.9164 160.848 81.1613 155.679 81.1613H147.174V69.409H156.033C157.888 69.409 159.181 67.5578 158.534 65.8313L144.319 27.4544H156.513L164.913 51.0214L171.916 27.4544H183.777H183.756Z" fill="url(#paint0_linear_335_93)"/>
</g>
<g filter="url(#filter1_d_335_93)">
<path d="M252.346 26.7472C241.882 26.7472 234.17 35.2338 234.17 45.5925V77.2508H245.718V62.2121C248.448 63.6473 251.262 64.5209 253.722 64.5209C264.185 64.5209 272.044 56.0343 272.044 45.5925C272.044 35.1506 262.747 26.7472 252.367 26.7472H252.346ZM253.055 53.0182C249.011 53.0182 245.697 49.711 245.697 45.6133C245.697 41.5156 249.011 38.2707 253.055 38.2707C257.098 38.2707 260.475 41.578 260.475 45.6133C260.475 49.6486 257.161 53.0182 253.055 53.0182ZM327.551 37.1059V52.6438C327.551 52.935 327.76 53.143 328.052 53.143H335.409V63.7929H328.052C321.277 63.7929 315.795 58.3224 315.795 51.5622V37.1059C315.795 36.8146 315.587 36.6066 315.295 36.6066H312.189V27.4752H315.212C315.503 27.4752 315.795 27.2672 315.795 26.976V15.1613H327.551V26.9552C327.551 27.2464 327.843 27.4544 328.135 27.4544H335.409V36.5858H328.052C327.76 36.5858 327.551 36.7938 327.551 37.0851V37.1059ZM292.533 26.248C282.216 26.248 273.857 34.8802 273.857 45.6133C273.857 56.3463 282.216 65.0409 292.533 65.0409C302.851 65.0409 311.21 56.3255 311.21 45.6133C311.21 34.901 302.851 26.248 292.533 26.248ZM292.533 53.1638C288.427 53.1638 285.113 49.7734 285.113 45.6133C285.113 41.4532 288.427 38.0627 292.533 38.0627C296.64 38.0627 299.954 41.4532 299.954 45.6133C299.954 49.7734 296.64 53.1638 292.533 53.1638ZM206.823 62.8153C204.113 61.6921 201.966 60.1736 200.403 58.2184C198.819 56.2631 197.943 54.0791 197.776 51.6246H210.012C210.199 52.8102 210.762 53.7255 211.721 54.3703C212.68 55.0359 214.618 55.3479 216.036 55.3479C217.12 55.3479 217.995 55.1191 218.641 54.6823C219.267 54.2455 219.6 53.6839 219.6 52.9766C219.6 52.0614 219.079 51.375 218.016 50.9382C216.974 50.5014 215.244 50.023 212.826 49.503C210.095 48.9829 207.802 48.3797 205.989 47.7349C204.175 47.0693 202.591 46.0085 201.236 44.5108C199.902 43.034 199.215 41.0163 199.215 38.4787C199.215 36.2946 199.819 34.3186 201.07 32.5505C202.3 30.7825 204.113 29.3681 206.51 28.328C208.907 27.2672 211.784 26.7472 215.16 26.7472C220.184 26.7472 224.123 27.9328 227 30.2833C229.876 32.6545 231.544 35.7538 231.981 39.6019H219.871C219.642 38.4163 219.1 37.5219 218.266 36.877C217.411 36.253 216.286 35.9202 214.889 35.9202C213.785 35.9202 212.972 36.1074 212.388 36.5026C211.825 36.8978 211.533 37.4387 211.533 38.1459C211.533 39.0195 212.055 39.6851 213.097 40.1427C214.139 40.6003 215.827 41.0787 218.162 41.5572C220.934 42.1188 223.248 42.7636 225.103 43.4708C226.958 44.178 228.563 45.3013 229.96 46.8405C231.356 48.4005 232.044 50.5014 232.044 53.1638C232.044 55.3063 231.398 57.2407 230.105 58.9464C228.813 60.652 226.958 62.0041 224.561 62.9817C222.164 63.9593 219.35 64.4585 216.119 64.4585C212.659 64.4585 209.553 63.8969 206.844 62.7945L206.823 62.8153Z" fill="url(#paint1_linear_335_93)"/>
</g>
<defs>
<filter id="filter0_d_335_93" x="0.854492" y="5.16132" width="192.922" height="86" filterUnits="userSpaceOnUse" color-interpolation-filters="sRGB">
<feFlood flood-opacity="0" result="BackgroundImageFix"/>
<feColorMatrix in="SourceAlpha" type="matrix" values="0 0 0 0 0 0 0 0 0 0 0 0 0 0 0 0 0 0 127 0" result="hardAlpha"/>
<feOffset/>
<feGaussianBlur stdDeviation="5"/>
<feComposite in2="hardAlpha" operator="out"/>
<feColorMatrix type="matrix" values="0 0 0 0 1 0 0 0 0 1 0 0 0 0 1 0 0 0 0.8 0"/>
<feBlend mode="normal" in2="BackgroundImageFix" result="effect1_dropShadow_335_93"/>
<feBlend mode="normal" in="SourceGraphic" in2="effect1_dropShadow_335_93" result="shape"/>
</filter>
<filter id="filter1_d_335_93" x="182.776" y="0.161316" width="167.633" height="92.0895" filterUnits="userSpaceOnUse" color-interpolation-filters="sRGB">
<feFlood flood-opacity="0" result="BackgroundImageFix"/>
<feColorMatrix in="SourceAlpha" type="matrix" values="0 0 0 0 0 0 0 0 0 0 0 0 0 0 0 0 0 0 127 0" result="hardAlpha"/>
<feOffset/>
<feGaussianBlur stdDeviation="7.5"/>
<feComposite in2="hardAlpha" operator="out"/>
<feColorMatrix type="matrix" values="0 0 0 0 1 0 0 0 0 1 0 0 0 0 1 0 0 0 0.5 0"/>
<feBlend mode="normal" in2="BackgroundImageFix" result="effect1_dropShadow_335_93"/>
<feBlend mode="normal" in="SourceGraphic" in2="effect1_dropShadow_335_93" result="shape"/>
</filter>
<linearGradient id="paint0_linear_335_93" x1="10.8545" y1="-50.2977" x2="234.702" y2="15.838" gradientUnits="userSpaceOnUse">
<stop stop-color="#E6267B"/>
<stop offset="1" stop-color="#E3004C"/>
</linearGradient>
<linearGradient id="paint1_linear_335_93" x1="197.776" y1="-46.4193" x2="380.102" y2="-0.843912" gradientUnits="userSpaceOnUse">
<stop stop-color="#E6267B"/>
<stop offset="1" stop-color="#E3004C"/>
</linearGradient>
</defs>
</svg>
